<?xml version='1.0' encoding='utf-8'?>
<svg xmlns="http://www.w3.org/2000/svg" version="1.1" width="4.9022mm" height="6.2484mm" viewBox="0.0000 0.0000 4.9022 6.2484">
<title>power:GND — exported by KiCad 9.0.9</title>
  <desc>Image generated by Eeschema-SVG </desc>
<g style="fill:#000000; fill-opacity:1.0000;stroke:#000000; stroke-opacity:1.0000; stroke-linecap:round; stroke-linejoin:round;" transform="translate(0 0) scale(1 1)">
<path style="fill:none;  stroke:#000000; stroke-width:0.1524; stroke-opacity:1;  stroke-linecap:round; stroke-linejoin:round;fill:none" d="M 2.4511,0.8989 2.4511,2.1689 3.7211,2.1689 2.4511,3.4389 1.1811,2.1689 2.4511,2.1689 " /> 
</g>
<g style="fill:none;  stroke:#000000; stroke-width:0.1524; stroke-opacity:1;  stroke-linecap:round; stroke-linejoin:round;">
<path d="M2.4511 0.8989 L2.4511 0.8989 " />
<text x="2.4511" y="5.3439" textLength="4.0737" font-size="1.6933" lengthAdjust="spacingAndGlyphs" text-anchor="middle" opacity="0" stroke-opacity="0">GND</text>
<g class="stroked-text"><desc>GND</desc>
<path d="M1.4835 4.0789 L1.3625 4.0184 " />
<path d="M1.3625 4.0184 L1.1811 4.0184 " />
<path d="M1.1811 4.0184 L0.9997 4.0789 " />
<path d="M0.9997 4.0789 L0.8787 4.1999 " />
<path d="M0.8787 4.1999 L0.8182 4.3208 " />
<path d="M0.8182 4.3208 L0.7578 4.5627 " />
<path d="M0.7578 4.5627 L0.7578 4.7441 " />
<path d="M0.7578 4.7441 L0.8182 4.9860 " />
<path d="M0.8182 4.9860 L0.8787 5.1070 " />
<path d="M0.8787 5.1070 L0.9997 5.2280 " />
<path d="M0.9997 5.2280 L1.1811 5.2884 " />
<path d="M1.1811 5.2884 L1.3020 5.2884 " />
<path d="M1.3020 5.2884 L1.4835 5.2280 " />
<path d="M1.4835 5.2280 L1.5439 5.1675 " />
<path d="M1.5439 5.1675 L1.5439 4.7441 " />
<path d="M1.5439 4.7441 L1.3020 4.7441 " />
<path d="M2.0882 5.2884 L2.0882 4.0184 " />
<path d="M2.0882 4.0184 L2.8139 5.2884 " />
<path d="M2.8139 5.2884 L2.8139 4.0184 " />
<path d="M3.4187 5.2884 L3.4187 4.0184 " />
<path d="M3.4187 4.0184 L3.7211 4.0184 " />
<path d="M3.7211 4.0184 L3.9025 4.0789 " />
<path d="M3.9025 4.0789 L4.0235 4.1999 " />
<path d="M4.0235 4.1999 L4.0840 4.3208 " />
<path d="M4.0840 4.3208 L4.1444 4.5627 " />
<path d="M4.1444 4.5627 L4.1444 4.7441 " />
<path d="M4.1444 4.7441 L4.0840 4.9860 " />
<path d="M4.0840 4.9860 L4.0235 5.1070 " />
<path d="M4.0235 5.1070 L3.9025 5.2280 " />
<path d="M3.9025 5.2280 L3.7211 5.2884 " />
<path d="M3.7211 5.2884 L3.4187 5.2884 " />
</g></g> 
</svg>