<?xml version='1.0' encoding='utf-8'?>
<svg xmlns="http://www.w3.org/2000/svg" version="1.1" width="7.9756mm" height="13.1064mm" viewBox="0.0000 0.0000 7.9756 13.1064">
<title>Simulation_SPICE:VDC — exported by KiCad 9.0.9</title>
  <desc>Image generated by Eeschema-SVG </desc>
<g style="fill:#000000; fill-opacity:1.0000;stroke:#000000; stroke-opacity:1.0000; stroke-linecap:round; stroke-linejoin:round;" transform="translate(0 0) scale(1 1)">
<path style="fill:none;  stroke:#000000; stroke-width:0.1524; stroke-opacity:1;  stroke-linecap:round; stroke-linejoin:round;fill:none" d="M 2.0654,6.2992 4.6054,6.2992 " /> 
<path style="fill:none;  stroke:#000000; stroke-width:0.1524; stroke-opacity:1;  stroke-linecap:round; stroke-linejoin:round;fill:none" d="M 2.5734,6.8072 2.0654,6.8072 " /> 
<path style="fill:none;  stroke:#000000; stroke-width:0.1524; stroke-opacity:1;  stroke-linecap:round; stroke-linejoin:round;fill:none" d="M 3.5894,6.8072 3.0814,6.8072 " /> 
<path style="fill:none;  stroke:#000000; stroke-width:0.1524; stroke-opacity:1;  stroke-linecap:round; stroke-linejoin:round;fill:none" d="M 4.6054,6.8072 4.0974,6.8072 " /> 
</g>
<g style="fill:none;  stroke:#000000; stroke-width:0.2540; stroke-opacity:1;  stroke-linecap:round; stroke-linejoin:round;">
<circle cx="3.3354" cy="6.5532" r="2.5400" /> 
</g>
<g style="fill:none;  stroke:#000000; stroke-width:0.1524; stroke-opacity:1;  stroke-linecap:round; stroke-linejoin:round;">
<text x="3.3354" y="5.2832" textLength="1.7756" font-size="1.6933" lengthAdjust="spacingAndGlyphs" text-anchor="middle" opacity="0" stroke-opacity="0">+</text>
<g class="stroked-text"><desc>+</desc>
<path d="M2.8515 4.7439 L3.8192 4.7439 " />
<path d="M3.3353 5.2277 L3.3353 4.2601 " />
</g><path d="M3.3354 4.0132 L3.3354 1.4732 " />
<path d="M3.3354 9.0932 L3.3354 11.6332 " />
<text x="5.8754" y="4.6482" textLength="2.3804" font-size="1.6933" lengthAdjust="spacingAndGlyphs" text-anchor="start" opacity="0" stroke-opacity="0">V?</text>
<g class="stroked-text"><desc>V?</desc>
<path d="M6.0965 3.3227 L6.5198 4.5927 " />
<path d="M6.5198 4.5927 L6.9432 3.3227 " />
<path d="M7.5480 4.4718 L7.6084 4.5323 " />
<path d="M7.6084 4.5323 L7.5480 4.5927 " />
<path d="M7.5480 4.5927 L7.4875 4.5323 " />
<path d="M7.4875 4.5323 L7.5480 4.4718 " />
<path d="M7.5480 4.4718 L7.5480 4.5927 " />
<path d="M7.3061 3.3832 L7.4270 3.3227 " />
<path d="M7.4270 3.3227 L7.7294 3.3227 " />
<path d="M7.7294 3.3227 L7.8503 3.3832 " />
<path d="M7.8503 3.3832 L7.9108 3.5042 " />
<path d="M7.9108 3.5042 L7.9108 3.6251 " />
<path d="M7.9108 3.6251 L7.8503 3.7461 " />
<path d="M7.8503 3.7461 L7.7899 3.8065 " />
<path d="M7.7899 3.8065 L7.6689 3.8670 " />
<path d="M7.6689 3.8670 L7.6084 3.9275 " />
<path d="M7.6084 3.9275 L7.5480 4.0484 " />
<path d="M7.5480 4.0484 L7.5480 4.1089 " />
</g><text x="5.8754" y="7.1882" textLength="1.4127" font-size="1.6933" lengthAdjust="spacingAndGlyphs" text-anchor="start" opacity="0" stroke-opacity="0">1</text>
<g class="stroked-text"><desc>1</desc>
<path d="M6.9432 7.1327 L6.2175 7.1327 " />
<path d="M6.5803 7.1327 L6.5803 5.8627 " />
<path d="M6.5803 5.8627 L6.4594 6.0442 " />
<path d="M6.4594 6.0442 L6.3384 6.1651 " />
<path d="M6.3384 6.1651 L6.2175 6.2256 " />
</g></g> 
</svg>